<svg width="10" height="10" viewBox="0 0 10 10" fill="none" xmlns="http://www.w3.org/2000/svg">
<path d="M3.33337 5.83416C3.21531 5.83416 3.11628 5.79416 3.03628 5.71416C2.95628 5.63416 2.91642 5.53527 2.9167 5.41749C2.9167 5.29944 2.9567 5.20041 3.0367 5.12041C3.1167 5.04041 3.21559 5.00055 3.33337 5.00083C3.45142 5.00083 3.55045 5.04083 3.63045 5.12083C3.71045 5.20083 3.75031 5.29971 3.75003 5.41749C3.75003 5.53555 3.71003 5.63458 3.63003 5.71458C3.55003 5.79458 3.45114 5.83444 3.33337 5.83416ZM5.00003 5.83416C4.88198 5.83416 4.78295 5.79416 4.70295 5.71416C4.62295 5.63416 4.58309 5.53527 4.58337 5.41749C4.58337 5.29944 4.62337 5.20041 4.70337 5.12041C4.78337 5.04041 4.88225 5.00055 5.00003 5.00083C5.11809 5.00083 5.21712 5.04083 5.29712 5.12083C5.37712 5.20083 5.41698 5.29971 5.4167 5.41749C5.4167 5.53555 5.3767 5.63458 5.2967 5.71458C5.2167 5.79458 5.11781 5.83444 5.00003 5.83416ZM6.6667 5.83416C6.54864 5.83416 6.44962 5.79416 6.36962 5.71416C6.28962 5.63416 6.24976 5.53527 6.25003 5.41749C6.25003 5.29944 6.29003 5.20041 6.37003 5.12041C6.45003 5.04041 6.54892 5.00055 6.6667 5.00083C6.78476 5.00083 6.88378 5.04083 6.96378 5.12083C7.04378 5.20083 7.08364 5.29971 7.08337 5.41749C7.08337 5.53555 7.04337 5.63458 6.96337 5.71458C6.88337 5.79458 6.78448 5.83444 6.6667 5.83416ZM2.08336 9.16749C1.8542 9.16749 1.65795 9.08583 1.49461 8.92249C1.33128 8.75916 1.24975 8.56305 1.25003 8.33416V2.50082C1.25003 2.27166 1.3317 2.07541 1.49503 1.91207C1.65836 1.74874 1.85448 1.66721 2.08336 1.66749H2.50003V1.24041C2.50003 1.12235 2.54003 1.02513 2.62003 0.948741C2.70003 0.872352 2.79892 0.834157 2.9167 0.834157C3.03475 0.834157 3.13378 0.874157 3.21378 0.954157C3.29378 1.03416 3.33364 1.13305 3.33337 1.25082V1.66749H6.6667V1.24041C6.6667 1.12235 6.7067 1.02513 6.7867 0.948741C6.8667 0.872352 6.96559 0.834157 7.08337 0.834157C7.20142 0.834157 7.30045 0.874157 7.38045 0.954157C7.46045 1.03416 7.50031 1.13305 7.50003 1.25082V1.66749H7.9167C8.14587 1.66749 8.34212 1.74916 8.50545 1.91249C8.66878 2.07582 8.75031 2.27194 8.75003 2.50082V8.33416C8.75003 8.56333 8.66837 8.75958 8.50503 8.92291C8.3417 9.08624 8.14559 9.16777 7.9167 9.16749H2.08336ZM2.08336 8.33416H7.9167V4.16749H2.08336V8.33416ZM2.08336 3.33416H7.9167V2.50082H2.08336V3.33416Z" fill="#223484"/>
</svg>
