<svg width="18" height="18" viewBox="0 0 18 18" fill="none" xmlns="http://www.w3.org/2000/svg">
<path fill-rule="evenodd" clip-rule="evenodd" d="M11.8125 4.5C11.8125 3.75408 11.5162 3.03871 10.9887 2.51126C10.4613 1.98382 9.74592 1.6875 9 1.6875C8.25408 1.6875 7.53871 1.98382 7.01126 2.51126C6.48382 3.03871 6.1875 3.75408 6.1875 4.5C6.1875 5.24592 6.48382 5.96129 7.01126 6.48874C7.53871 7.01618 8.25408 7.3125 9 7.3125C9.74592 7.3125 10.4613 7.01618 10.9887 6.48874C11.5162 5.96129 11.8125 5.24592 11.8125 4.5ZM9 2.8125C9.44755 2.8125 9.87677 2.99029 10.1932 3.30676C10.5097 3.62323 10.6875 4.05245 10.6875 4.5C10.6875 4.94755 10.5097 5.37678 10.1932 5.69324C9.87677 6.00971 9.44755 6.1875 9 6.1875C8.55245 6.1875 8.12323 6.00971 7.80676 5.69324C7.49029 5.37678 7.3125 4.94755 7.3125 4.5C7.3125 4.05245 7.49029 3.62323 7.80676 3.30676C8.12323 2.99029 8.55245 2.8125 9 2.8125ZM6.9375 13.5C6.9375 12.7541 6.64118 12.0387 6.11374 11.5113C5.58629 10.9838 4.87092 10.6875 4.125 10.6875C3.37908 10.6875 2.66371 10.9838 2.13626 11.5113C1.60882 12.0387 1.3125 12.7541 1.3125 13.5C1.3125 14.2459 1.60882 14.9613 2.13626 15.4887C2.66371 16.0162 3.37908 16.3125 4.125 16.3125C4.87092 16.3125 5.58629 16.0162 6.11374 15.4887C6.64118 14.9613 6.9375 14.2459 6.9375 13.5ZM4.125 11.8125C4.57255 11.8125 5.00178 11.9903 5.31824 12.3068C5.63471 12.6232 5.8125 13.0524 5.8125 13.5C5.8125 13.9476 5.63471 14.3768 5.31824 14.6932C5.00178 15.0097 4.57255 15.1875 4.125 15.1875C3.67745 15.1875 3.24822 15.0097 2.93176 14.6932C2.61529 14.3768 2.4375 13.9476 2.4375 13.5C2.4375 13.0524 2.61529 12.6232 2.93176 12.3068C3.24822 11.9903 3.67745 11.8125 4.125 11.8125ZM13.875 10.6875C14.6209 10.6875 15.3363 10.9838 15.8637 11.5113C16.3912 12.0387 16.6875 12.7541 16.6875 13.5C16.6875 14.2459 16.3912 14.9613 15.8637 15.4887C15.3363 16.0162 14.6209 16.3125 13.875 16.3125C13.1291 16.3125 12.4137 16.0162 11.8863 15.4887C11.3588 14.9613 11.0625 14.2459 11.0625 13.5C11.0625 12.7541 11.3588 12.0387 11.8863 11.5113C12.4137 10.9838 13.1291 10.6875 13.875 10.6875ZM15.5625 13.5C15.5625 13.0524 15.3847 12.6232 15.0682 12.3068C14.7518 11.9903 14.3226 11.8125 13.875 11.8125C13.4274 11.8125 12.9982 11.9903 12.6818 12.3068C12.3653 12.6232 12.1875 13.0524 12.1875 13.5C12.1875 13.9476 12.3653 14.3768 12.6818 14.6932C12.9982 15.0097 13.4274 15.1875 13.875 15.1875C14.3226 15.1875 14.7518 15.0097 15.0682 14.6932C15.3847 14.3768 15.5625 13.9476 15.5625 13.5Z" fill="#2196F3"/>
<path d="M5.40375 5.6715C5.51281 5.572 5.57839 5.43362 5.58633 5.2862C5.59426 5.13879 5.54394 4.99417 5.44619 4.88353C5.34845 4.77289 5.21113 4.70512 5.06387 4.69482C4.9166 4.68453 4.77119 4.73254 4.659 4.8285C3.96006 5.4437 3.40037 6.20091 3.0173 7.04958C2.63422 7.89825 2.43655 8.81887 2.4375 9.75C2.4375 9.89918 2.49677 10.0423 2.60226 10.1477C2.70774 10.2532 2.85082 10.3125 3 10.3125C3.14919 10.3125 3.29226 10.2532 3.39775 10.1477C3.50324 10.0423 3.5625 9.89918 3.5625 9.75C3.56153 8.97831 3.72527 8.2153 4.0428 7.51196C4.36032 6.80862 4.82431 6.18116 5.40375 5.6715ZM13.341 4.8285C13.2288 4.73254 13.0834 4.68453 12.9361 4.69482C12.7889 4.70512 12.6516 4.77289 12.5538 4.88353C12.4561 4.99417 12.4057 5.13879 12.4137 5.2862C12.4216 5.43362 12.4872 5.572 12.5963 5.6715C13.1757 6.18116 13.6397 6.80862 13.9572 7.51196C14.2747 8.2153 14.4385 8.97831 14.4375 9.75C14.4375 9.89918 14.4968 10.0423 14.6023 10.1477C14.7077 10.2532 14.8508 10.3125 15 10.3125C15.1492 10.3125 15.2923 10.2532 15.3978 10.1477C15.5032 10.0423 15.5625 9.89918 15.5625 9.75C15.5635 8.81887 15.3658 7.89825 14.9827 7.04958C14.5996 6.20091 14.0399 5.4437 13.341 4.8285ZM7.64025 15.0165C7.56798 14.9957 7.49226 14.9896 7.41758 14.9985C7.3429 15.0075 7.27077 15.0313 7.20547 15.0686C7.14016 15.1059 7.083 15.1559 7.03736 15.2157C6.99173 15.2755 6.95855 15.3439 6.93979 15.4167C6.92103 15.4895 6.91707 15.5654 6.92814 15.6398C6.93921 15.7142 6.96508 15.7856 7.00424 15.8498C7.0434 15.9141 7.09503 15.9698 7.1561 16.0137C7.21716 16.0576 7.28641 16.0888 7.35975 16.1055C8.43572 16.3825 9.56429 16.3825 10.6403 16.1055C10.7136 16.0888 10.7828 16.0576 10.8439 16.0137C10.905 15.9698 10.9566 15.9141 10.9958 15.8498C11.0349 15.7856 11.0608 15.7142 11.0719 15.6398C11.0829 15.5654 11.079 15.4895 11.0602 15.4167C11.0415 15.3439 11.0083 15.2755 10.9626 15.2157C10.917 15.1559 10.8598 15.1059 10.7945 15.0686C10.7292 15.0313 10.6571 15.0075 10.5824 14.9985C10.5077 14.9896 10.432 14.9957 10.3598 15.0165C9.9155 15.1305 9.45864 15.1879 9 15.1875C8.54139 15.1876 8.08457 15.1301 7.64025 15.0165Z" fill="#2196F3"/>
</svg>
