<svg width="18" height="18" viewBox="0 0 18 18" fill="none" xmlns="http://www.w3.org/2000/svg">
<path d="M8.52683 13.4958L8.52696 13.4957L12.202 9.82072L12.3727 9.65001H12.1313H3.75C3.56274 9.65001 3.41032 9.58765 3.28596 9.4633C3.16162 9.33895 3.09956 9.18686 3.1 9.00024V9.00001C3.1 8.81274 3.16236 8.66032 3.28671 8.53597C3.41106 8.41162 3.56315 8.34957 3.74977 8.35001H3.75H12.1313H12.3727L12.202 8.1793L8.52696 4.5043C8.41084 4.38817 8.35366 4.24068 8.35896 4.05283C8.36431 3.86337 8.42746 3.71355 8.54559 3.59584L8.54571 3.59572C8.66263 3.4788 8.81132 3.41876 9 3.41876C9.18869 3.41876 9.33738 3.4788 9.45429 3.59572L14.4043 8.54572L14.404 8.54601L14.411 8.55183C14.4715 8.60227 14.5142 8.66482 14.5399 8.74153C14.5679 8.82509 14.5817 8.91093 14.5813 8.9995V9.00001C14.5813 9.08951 14.5674 9.17189 14.5405 9.24786C14.5152 9.31928 14.4709 9.38808 14.4045 9.45406L14.4043 9.4543L9.45429 14.4043C9.33738 14.5212 9.18869 14.5813 9 14.5813C8.81132 14.5813 8.66263 14.5212 8.54571 14.4043C8.42797 14.2866 8.36476 14.1366 8.35896 13.9469C8.35322 13.7593 8.41032 13.6119 8.52683 13.4958Z" fill="#2196F3" stroke="#D3EAFD" stroke-width="0.2"/>
</svg>
