<svg width="11" height="11" viewBox="0 0 11 11" fill="none" xmlns="http://www.w3.org/2000/svg">
<path d="M3.90202 7.19227L3.46257 8.92424C3.43594 9.03882 3.37823 9.13137 3.28945 9.20188C3.20067 9.27239 3.09414 9.30765 2.96985 9.30765C2.80117 9.30765 2.66356 9.24154 2.55703 9.10933C2.45049 8.97712 2.41942 8.83169 2.46381 8.67303L2.83668 7.19227H1.38515C1.20759 7.19227 1.06555 7.12388 0.959014 6.98708C0.85248 6.85029 0.821408 6.69833 0.865797 6.53122C0.89243 6.40782 0.954575 6.31087 1.05223 6.24035C1.14989 6.16984 1.26086 6.13459 1.38515 6.13459H3.10302L3.63569 4.01921H2.18416C2.0066 4.01921 1.86456 3.95081 1.75802 3.81402C1.65149 3.67723 1.62041 3.52527 1.6648 3.35816C1.69144 3.23476 1.75358 3.1378 1.85124 3.06729C1.9489 2.99678 2.05987 2.96152 2.18416 2.96152H3.90202L4.34148 1.22956C4.36811 1.11498 4.42582 1.02243 4.5146 0.951918C4.60337 0.881405 4.70991 0.846149 4.8342 0.846149C5.00288 0.846149 5.14048 0.912254 5.24702 1.04447C5.35355 1.17668 5.38463 1.32211 5.34024 1.48076L4.96737 2.96152H7.09805L7.53751 1.22956C7.56414 1.11498 7.62184 1.02243 7.71062 0.951918C7.7994 0.881405 7.90594 0.846149 8.03023 0.846149C8.19891 0.846149 8.33651 0.912254 8.44305 1.04447C8.54958 1.17668 8.58065 1.32211 8.53626 1.48076L8.16339 2.96152H9.61492C9.79248 2.96152 9.93453 3.02974 10.0411 3.16619C10.1476 3.30263 10.1787 3.45476 10.1343 3.62258C10.1076 3.74597 10.0455 3.84293 9.94784 3.91344C9.85019 3.98395 9.73921 4.01921 9.61492 4.01921H7.89706L7.36439 6.13459H8.81592C8.99347 6.13459 9.13552 6.20298 9.24205 6.33978C9.34859 6.47657 9.37966 6.62852 9.33527 6.79564C9.30864 6.91904 9.24649 7.01599 9.14884 7.0865C9.05118 7.15702 8.94021 7.19227 8.81592 7.19227H7.09805L6.6586 8.92424C6.63196 9.03882 6.57426 9.13137 6.48548 9.20188C6.3967 9.27239 6.29017 9.30765 6.16588 9.30765C5.9972 9.30765 5.85959 9.24154 5.75306 9.10933C5.64652 8.97712 5.61545 8.83169 5.65984 8.67303L6.03271 7.19227H3.90202ZM4.16836 6.13459H6.29904L6.83172 4.01921H4.70103L4.16836 6.13459Z" fill="#2196F3"/>
</svg>
