<svg width="8" height="10" viewBox="0 0 8 10" fill="none" xmlns="http://www.w3.org/2000/svg">
<path d="M6.75555 3.83537H3.94526V0.393224C3.94526 0.326953 3.91883 0.262636 3.87029 0.210759C3.82175 0.158882 3.75396 0.122506 3.67797 0.10756C3.60197 0.0926146 3.52226 0.0999811 3.45183 0.128459C3.38139 0.156937 3.32439 0.204847 3.29011 0.264378L0.134698 5.74326C0.109139 5.78794 0.0973586 5.8374 0.100462 5.887C0.103566 5.9366 0.121452 5.98472 0.152442 6.02685C0.183431 6.06897 0.226509 6.10371 0.277633 6.12782C0.328756 6.15192 0.386249 6.16459 0.444718 6.16465H3.25501V9.60763C3.25517 9.67364 3.28155 9.73767 3.32986 9.78936C3.37818 9.84105 3.44561 9.87738 3.52125 9.89247C3.54713 9.89748 3.57359 9.90001 3.60013 9.90001C3.6647 9.89998 3.72797 9.88456 3.78274 9.8555C3.83751 9.82644 3.88158 9.78492 3.90995 9.73564L7.06537 4.25676C7.09087 4.21209 7.1026 4.16265 7.09948 4.11308C7.09636 4.06351 7.07849 4.01542 7.04753 3.97332C7.01657 3.93122 6.97355 3.89647 6.92248 3.87235C6.87142 3.84822 6.81398 3.8355 6.75555 3.83537ZM3.94526 8.34062V5.87127C3.9452 5.79353 3.90882 5.719 3.8441 5.66404C3.77938 5.60909 3.69163 5.57822 3.60013 5.57822H0.996915L3.25481 1.65957V4.12875C3.25484 4.16725 3.26379 4.20538 3.28116 4.24094C3.29853 4.27651 3.32397 4.30882 3.35604 4.33603C3.3881 4.36324 3.42616 4.38482 3.46804 4.39954C3.50993 4.41425 3.55481 4.42182 3.60013 4.42179H6.20335L3.94526 8.34062Z" fill="#2196F3" stroke="#2196F3" stroke-width="0.2"/>
</svg>
