<svg width="10" height="10" viewBox="0 0 10 10" fill="none" xmlns="http://www.w3.org/2000/svg">
<g clip-path="url(#clip0_27_4077)">
<path d="M3.3333 5.83334C3.21525 5.83334 3.11622 5.79334 3.03622 5.71334C2.95622 5.63334 2.91636 5.53445 2.91664 5.41667C2.91664 5.29862 2.95664 5.19959 3.03664 5.11959C3.11664 5.03959 3.21553 4.99973 3.3333 5C3.45136 5 3.55039 5.04 3.63039 5.12C3.71039 5.2 3.75025 5.29889 3.74997 5.41667C3.74997 5.53473 3.70997 5.63376 3.62997 5.71376C3.54997 5.79376 3.45108 5.83362 3.3333 5.83334ZM4.99997 5.83334C4.88192 5.83334 4.78289 5.79334 4.70289 5.71334C4.62289 5.63334 4.58303 5.53445 4.58331 5.41667C4.58331 5.29862 4.62331 5.19959 4.70331 5.11959C4.78331 5.03959 4.8822 4.99973 4.99997 5C5.11803 5 5.21706 5.04 5.29706 5.12C5.37706 5.2 5.41692 5.29889 5.41664 5.41667C5.41664 5.53473 5.37664 5.63376 5.29664 5.71376C5.21664 5.79376 5.11775 5.83362 4.99997 5.83334ZM6.66664 5.83334C6.54859 5.83334 6.44956 5.79334 6.36956 5.71334C6.28956 5.63334 6.2497 5.53445 6.24997 5.41667C6.24997 5.29862 6.28997 5.19959 6.36997 5.11959C6.44997 5.03959 6.54886 4.99973 6.66664 5C6.7847 5 6.88372 5.04 6.96372 5.12C7.04372 5.2 7.08359 5.29889 7.08331 5.41667C7.08331 5.53473 7.04331 5.63376 6.96331 5.71376C6.88331 5.79376 6.78442 5.83362 6.66664 5.83334ZM2.0833 9.16668C1.85414 9.16668 1.65789 9.08501 1.49455 8.92168C1.33122 8.75834 1.24969 8.56223 1.24997 8.33334V2.5C1.24997 2.27083 1.33164 2.07458 1.49497 1.91125C1.6583 1.74792 1.85441 1.66639 2.0833 1.66667H2.49997V1.23958C2.49997 1.12153 2.53997 1.02431 2.61997 0.947917C2.69997 0.871528 2.79886 0.833333 2.91664 0.833333C3.03469 0.833333 3.13372 0.873333 3.21372 0.953334C3.29372 1.03333 3.33358 1.13222 3.3333 1.25V1.66667H6.66664V1.23958C6.66664 1.12153 6.70664 1.02431 6.78664 0.947917C6.86664 0.871528 6.96553 0.833333 7.08331 0.833333C7.20136 0.833333 7.30039 0.873333 7.38039 0.953334C7.46039 1.03333 7.50025 1.13222 7.49998 1.25V1.66667H7.91664C8.14581 1.66667 8.34206 1.74833 8.50539 1.91167C8.66873 2.075 8.75025 2.27111 8.74998 2.5V8.33334C8.74998 8.56251 8.66831 8.75876 8.50498 8.92209C8.34164 9.08543 8.14553 9.16695 7.91664 9.16668H2.0833ZM2.0833 8.33334H7.91664V4.16667H2.0833V8.33334ZM2.0833 3.33334H7.91664V2.5H2.0833V3.33334Z" fill="#2196F3"/>
</g>
<defs>
<clipPath id="clip0_27_4077">
<rect width="9.6233" height="9.6233" fill="white" transform="scale(1.03915)"/>
</clipPath>
</defs>
</svg>
