<svg width="11" height="11" viewBox="0 0 11 11" fill="none" xmlns="http://www.w3.org/2000/svg">
<path d="M3.90189 7.19227L3.46244 8.92424C3.43581 9.03882 3.3781 9.13137 3.28932 9.20188C3.20054 9.27239 3.09401 9.30765 2.96972 9.30765C2.80104 9.30765 2.66343 9.24154 2.5569 9.10933C2.45037 8.97712 2.41929 8.83169 2.46368 8.67303L2.83655 7.19227H1.38502C1.20747 7.19227 1.06542 7.12388 0.958885 6.98708C0.852351 6.85029 0.821279 6.69833 0.865668 6.53122C0.892302 6.40782 0.954447 6.31087 1.0521 6.24035C1.14976 6.16984 1.26073 6.13459 1.38502 6.13459H3.10289L3.63556 4.01921H2.18403C2.00647 4.01921 1.86443 3.95081 1.75789 3.81402C1.65136 3.67723 1.62029 3.52527 1.66468 3.35816C1.69131 3.23476 1.75345 3.1378 1.85111 3.06729C1.94877 2.99678 2.05974 2.96152 2.18403 2.96152H3.90189L4.34135 1.22956C4.36798 1.11498 4.42569 1.02243 4.51447 0.951918C4.60324 0.881405 4.70978 0.846149 4.83407 0.846149C5.00275 0.846149 5.14036 0.912254 5.24689 1.04447C5.35342 1.17668 5.3845 1.32211 5.34011 1.48076L4.96724 2.96152H7.09792L7.53738 1.22956C7.56401 1.11498 7.62172 1.02243 7.71049 0.951918C7.79927 0.881405 7.90581 0.846149 8.0301 0.846149C8.19878 0.846149 8.33638 0.912254 8.44292 1.04447C8.54945 1.17668 8.58052 1.32211 8.53614 1.48076L8.16327 2.96152H9.61479C9.79235 2.96152 9.9344 3.02974 10.0409 3.16619C10.1475 3.30263 10.1785 3.45476 10.1341 3.62258C10.1075 3.74597 10.0454 3.84293 9.94771 3.91344C9.85006 3.98395 9.73909 4.01921 9.61479 4.01921H7.89693L7.36426 6.13459H8.81579C8.99334 6.13459 9.13539 6.20298 9.24192 6.33978C9.34846 6.47657 9.37953 6.62852 9.33514 6.79564C9.30851 6.91904 9.24636 7.01599 9.14871 7.0865C9.05105 7.15702 8.94008 7.19227 8.81579 7.19227H7.09792L6.65847 8.92424C6.63184 9.03882 6.57413 9.13137 6.48535 9.20188C6.39657 9.27239 6.29004 9.30765 6.16575 9.30765C5.99707 9.30765 5.85946 9.24154 5.75293 9.10933C5.64639 8.97712 5.61532 8.83169 5.65971 8.67303L6.03258 7.19227H3.90189ZM4.16823 6.13459H6.29892L6.83159 4.01921H4.7009L4.16823 6.13459Z" fill="#2196F3"/>
</svg>
